<?xml version="1.0" encoding="UTF-8"?>
<!DOCTYPE svg PUBLIC "-//W3C//DTD SVG 1.1//EN" "http://www.w3.org/Graphics/SVG/1.1/DTD/svg11.dtd">
<svg xmlns="http://www.w3.org/2000/svg" version="1.1" width="239px" height="152px" style="shape-rendering:geometricPrecision; text-rendering:geometricPrecision; image-rendering:optimizeQuality; fill-rule:evenodd; clip-rule:evenodd" xmlns:xlink="http://www.w3.org/1999/xlink">
<g><path style="opacity:1" fill="#feefe4" d="M -0.5,-0.5 C 79.1667,-0.5 158.833,-0.5 238.5,-0.5C 238.5,50.1667 238.5,100.833 238.5,151.5C 158.833,151.5 79.1667,151.5 -0.5,151.5C -0.5,100.833 -0.5,50.1667 -0.5,-0.5 Z"/></g>
<g><path style="opacity:1" fill="#ce9e84" d="M 90.5,28.5 C 91.8095,32.3507 91.8095,36.3507 90.5,40.5C 89.8933,40.3764 89.56,40.0431 89.5,39.5C 89.185,35.6286 89.5184,31.9619 90.5,28.5 Z"/></g>
<g><path style="opacity:1" fill="#fef0e4" d="M 9.5,64.5 C 10.6685,57.9937 11.6685,51.327 12.5,44.5C 15.589,30.7022 22.7556,28.0355 34,36.5C 36.2612,40.9499 37.9278,45.6165 39,50.5C 39.6667,64.5 39.6667,78.5 39,92.5C 38.0983,99.9716 35.765,106.972 32,113.5C 28.6621,116.318 24.8288,117.151 20.5,116C 15.8869,110.94 12.7203,105.106 11,98.5C 9.64449,87.2148 9.14449,75.8815 9.5,64.5 Z"/></g>
<g><path style="opacity:1" fill="#cfa086" d="M 155.5,31.5 C 157.305,38.768 158.139,46.4347 158,54.5C 160.147,55.1125 162.314,55.7792 164.5,56.5C 162.314,57.2208 160.147,57.8875 158,58.5C 157.333,75.1667 157.333,91.8333 158,108.5C 160.667,119.167 163.333,119.167 166,108.5C 167.342,107.098 168.176,107.431 168.5,109.5C 168.143,113.118 166.809,116.285 164.5,119C 160.834,120.271 158.334,119.104 157,115.5C 155.705,96.8985 155.038,78.2318 155,59.5C 153.644,58.6198 152.144,58.2865 150.5,58.5C 150.5,57.5 150.5,56.5 150.5,55.5C 151.833,55.5 153.167,55.5 154.5,55.5C 154.199,47.4144 154.533,39.4144 155.5,31.5 Z"/></g>
<g><path style="opacity:1" fill="#dfbba7" d="M 90.5,28.5 C 89.5184,31.9619 89.185,35.6286 89.5,39.5C 88.1905,35.6493 88.1905,31.6493 89.5,27.5C 90.1067,27.6236 90.44,27.9569 90.5,28.5 Z"/></g>
<g><path style="opacity:1" fill="#d7ad96" d="M 47.5,26.5 C 48.5,26.5 49.5,26.5 50.5,26.5C 50.3334,53.5021 50.5,80.5021 51,107.5C 51.0329,112.104 52.5329,116.104 55.5,119.5C 55,119.833 54.5,120.167 54,120.5C 50.3011,117.451 48.3011,113.451 48,108.5C 47.5,81.1687 47.3334,53.8354 47.5,26.5 Z"/></g>
<g><path style="opacity:1" fill="#d5aa91" d="M 59.5,28.5 C 60.5,28.5 61.5,28.5 62.5,28.5C 62.5,32.5 62.5,36.5 62.5,40.5C 61.5,40.5 60.5,40.5 59.5,40.5C 59.5,36.5 59.5,32.5 59.5,28.5 Z"/></g>
<g><path style="opacity:1" fill="#e0bda9" d="M 10.5,42.5 C 9.77906,45.8175 9.61239,49.1508 10,52.5C 10.2794,49.5432 11.1127,46.8766 12.5,44.5C 11.6685,51.327 10.6685,57.9937 9.5,64.5C 9.6653,60.8183 9.49863,57.1516 9,53.5C 7.62537,64.1112 7.12537,74.7779 7.5,85.5C 6.34204,76.0089 6.17537,66.3422 7,56.5C 7.4869,51.535 8.65357,46.8684 10.5,42.5 Z"/></g>
<g><path style="opacity:1" fill="#d7ae96" d="M 60.5,52.5 C 62.489,73.8076 63.1557,95.4742 62.5,117.5C 61.5,117.5 60.5,117.5 59.5,117.5C 59.1783,95.758 59.5116,74.0913 60.5,52.5 Z"/></g>
<g><path style="opacity:1" fill="#d1a48b" d="M 205.5,53.5 C 209.509,52.6857 212.176,54.1857 213.5,58C 212.046,59.6591 210.713,59.3257 209.5,57C 206.26,56.5584 204.427,58.0584 204,61.5C 203.5,79.8303 203.333,98.1636 203.5,116.5C 202.5,116.5 201.5,116.5 200.5,116.5C 200.333,97.8304 200.5,79.1637 201,60.5C 202.012,57.7982 203.512,55.4649 205.5,53.5 Z"/></g>
<g><path style="opacity:1" fill="#fcece1" d="M 227.5,57.5 C 228.358,65.1322 228.691,72.7989 228.5,80.5C 225.167,80.5 221.833,80.5 218.5,80.5C 218.5,75.1667 218.5,69.8333 218.5,64.5C 219.188,61.9799 220.188,59.4799 221.5,57C 223.712,56.2109 225.712,56.3775 227.5,57.5 Z"/></g>
<g><path style="opacity:1" fill="#cfa086" d="M 229.5,59.5 C 230.167,60.1667 230.833,60.8333 231.5,61.5C 232.833,68.5 232.833,75.5 231.5,82.5C 227.167,82.5 222.833,82.5 218.5,82.5C 218.5,88.5 218.5,94.5 218.5,100.5C 217.217,91.7877 217.217,79.7877 218.5,64.5C 218.5,69.8333 218.5,75.1667 218.5,80.5C 221.833,80.5 225.167,80.5 228.5,80.5C 229.491,73.6866 229.825,66.6866 229.5,59.5 Z"/></g>
<g><path style="opacity:1" fill="#d0a289" d="M 98.5,110.5 C 98.3921,105.13 98.7255,99.7968 99.5,94.5C 101.614,89.8866 105.114,86.8866 110,85.5C 110.167,81.3333 110.333,77.1667 110.5,73C 110.612,68.0565 110.112,63.2232 109,58.5C 107.951,57.4829 106.784,57.3162 105.5,58C 103.47,59.8962 101.803,62.0629 100.5,64.5C 98.7011,60.4747 99.7011,57.308 103.5,55C 109.523,53.6765 112.689,56.1765 113,62.5C 113.667,80.1667 113.667,97.8333 113,115.5C 109.931,119.686 106.265,120.352 102,117.5C 100.787,115.075 99.6207,112.741 98.5,110.5 Z"/></g>
<g><path style="opacity:1" fill="#edd2c2" d="M 227.5,57.5 C 228.167,58.1667 228.833,58.8333 229.5,59.5C 229.825,66.6866 229.491,73.6866 228.5,80.5C 228.691,72.7989 228.358,65.1322 227.5,57.5 Z"/></g>
<g><path style="opacity:1" fill="#d1a28a" d="M 89.5,52.5 C 90.8322,62.9788 91.4988,73.8121 91.5,85C 91.1667,95.8333 90.8333,106.667 90.5,117.5C 89.5003,95.8436 89.167,74.1769 89.5,52.5 Z"/></g>
<g><path style="opacity:1" fill="#d0a188" d="M 66.5,54.5 C 68.1238,54.3601 69.2904,55.0267 70,56.5C 72.0535,72.541 74.3868,88.541 77,104.5C 79.266,87.8714 81.0993,71.2047 82.5,54.5C 83.5,54.5 84.5,54.5 85.5,54.5C 83.1714,75.9883 80.338,97.3216 77,118.5C 73.6194,97.2152 70.1194,75.8819 66.5,54.5 Z"/></g>
<g><path style="opacity:1" fill="#fcece0" d="M 108.5,89.5 C 110.467,97.0968 111.134,105.097 110.5,113.5C 109.294,116.139 107.294,116.972 104.5,116C 99.7866,108.812 99.2866,101.312 103,93.5C 104.451,91.5359 106.284,90.2026 108.5,89.5 Z"/></g>
<g><path style="opacity:1" fill="#e9ccbb" d="M 231.5,82.5 C 227.702,83.4834 223.702,83.8168 219.5,83.5C 219.5,89.1667 219.5,94.8333 219.5,100.5C 219.167,100.5 218.833,100.5 218.5,100.5C 218.5,94.5 218.5,88.5 218.5,82.5C 222.833,82.5 227.167,82.5 231.5,82.5 Z"/></g>
<g><path style="opacity:1" fill="#eed4c3" d="M 108.5,89.5 C 109.209,88.596 110.209,88.2627 111.5,88.5C 111.826,97.0168 111.493,105.35 110.5,113.5C 111.134,105.097 110.467,97.0968 108.5,89.5 Z"/></g>
<g><path style="opacity:1" fill="#e6c7b5" d="M 99.5,94.5 C 98.7255,99.7968 98.3921,105.13 98.5,110.5C 97.3516,106.019 97.1849,101.352 98,96.5C 98.2784,95.5842 98.7784,94.9175 99.5,94.5 Z"/></g>
<g><path style="opacity:1" fill="#ebcfbe" d="M 144.5,93.5 C 145.793,94.842 146.626,96.5087 147,98.5C 147.812,102.689 147.645,106.689 146.5,110.5C 146.79,104.678 146.123,99.0117 144.5,93.5 Z"/></g>
<g><path style="opacity:1" fill="#d2a68d" d="M 180.5,53.5 C 182.527,53.3379 184.527,53.5045 186.5,54C 192.647,59.7185 196.147,66.8852 197,75.5C 197.667,84.5 197.667,93.5 197,102.5C 195.933,107.368 194.266,112.034 192,116.5C 186.109,120.792 180.775,120.125 176,114.5C 172.873,109.581 170.873,104.248 170,98.5C 168.373,85.7947 169.707,73.4614 174,61.5C 175.652,58.3544 177.819,55.6877 180.5,53.5 Z"/></g>
<g><path style="opacity:1" fill="#fdeee3" d="M 180.5,56.5 C 184.273,55.8224 187.106,57.1558 189,60.5C 192.286,65.6901 193.952,71.3568 194,77.5C 194.816,86.8794 194.483,96.2127 193,105.5C 191.732,113.801 187.232,116.634 179.5,114C 175.993,109.828 173.826,104.994 173,99.5C 172.333,90.5 172.333,81.5 173,72.5C 174.265,66.5126 176.765,61.1793 180.5,56.5 Z"/></g>
<g><path style="opacity:1" fill="#d6ac94" d="M 231.5,61.5 C 230.833,60.8333 230.167,60.1667 229.5,59.5C 228.833,58.8333 228.167,58.1667 227.5,57.5C 225.712,56.3775 223.712,56.2109 221.5,57C 220.188,59.4799 219.188,61.9799 218.5,64.5C 217.217,79.7877 217.217,91.7877 218.5,100.5C 218.833,100.5 219.167,100.5 219.5,100.5C 218.638,106.039 219.972,110.872 223.5,115C 225.473,115.495 227.473,115.662 229.5,115.5C 229.336,112.813 229.503,110.146 230,107.5C 230.71,106.027 231.876,105.36 233.5,105.5C 234.633,116.554 230.133,120.22 220,116.5C 217.082,110.537 215.749,104.204 216,97.5C 215.333,86.8333 215.333,76.1667 216,65.5C 216.293,60.6101 218.126,56.4435 221.5,53C 223.167,52.3333 224.833,52.3333 226.5,53C 230.073,54.7343 231.74,57.5676 231.5,61.5 Z"/></g>
<g><path style="opacity:1" fill="#d4a890" d="M 146.5,110.5 C 147.645,106.689 147.812,102.689 147,98.5C 146.626,96.5087 145.793,94.842 144.5,93.5C 140.716,86.512 137.55,79.1787 135,71.5C 134.333,66.8333 134.333,62.1667 135,57.5C 139.035,52.6357 143.368,52.3024 148,56.5C 149.535,60.8021 149.702,65.1354 148.5,69.5C 147.914,69.2907 147.414,68.9574 147,68.5C 146.667,65.1667 146.333,61.8333 146,58.5C 143.421,54.6338 140.755,54.6338 138,58.5C 137.333,62.8333 137.333,67.1667 138,71.5C 141.097,79.698 144.763,87.698 149,95.5C 149.667,101.5 149.667,107.5 149,113.5C 147.931,118.257 145.098,120.091 140.5,119C 135.102,113.642 133.102,107.142 134.5,99.5C 135.5,99.5 136.5,99.5 137.5,99.5C 136.99,105.072 137.823,110.405 140,115.5C 144.485,117.203 146.651,115.536 146.5,110.5 Z"/></g>
<g><path style="opacity:1" fill="#d3a78f" d="M 7.5,85.5 C 7.12537,74.7779 7.62537,64.1112 9,53.5C 9.49863,57.1516 9.6653,60.8183 9.5,64.5C 9.14449,75.8815 9.64449,87.2148 11,98.5C 12.7203,105.106 15.8869,110.94 20.5,116C 24.8288,117.151 28.6621,116.318 32,113.5C 35.765,106.972 38.0983,99.9716 39,92.5C 39.6667,78.5 39.6667,64.5 39,50.5C 37.9278,45.6165 36.2612,40.9499 34,36.5C 22.7556,28.0355 15.589,30.7022 12.5,44.5C 11.1127,46.8766 10.2794,49.5432 10,52.5C 9.61239,49.1508 9.77906,45.8175 10.5,42.5C 12.9315,31.2267 19.5982,27.3933 30.5,31C 35.5512,33.7199 38.7178,37.8865 40,43.5C 43.2945,62.8405 43.2945,82.1738 40,101.5C 38.5488,108.942 34.7155,114.775 28.5,119C 22.9384,120.581 18.4384,119.081 15,114.5C 9.54646,105.689 7.04646,96.0223 7.5,85.5 Z"/></g>
<g><path style="opacity:1" fill="#e6c6b4" d="M 177.5,129.5 C 185.044,130.704 185.377,133.371 178.5,137.5C 177.52,134.914 177.187,132.247 177.5,129.5 Z"/></g>
<g><path style="opacity:1" fill="#dfbba6" d="M 75.5,129.5 C 76.7251,130.152 77.3917,131.319 77.5,133C 76.9585,137.214 75.4585,137.381 73,133.5C 72.7508,134.624 72.2508,135.624 71.5,136.5C 69.8717,130.636 71.0384,129.636 75,133.5C 75.49,132.207 75.6567,130.873 75.5,129.5 Z"/></g>
<g><path style="opacity:1" fill="#d7ae97" d="M 84.5,129.5 C 85.4614,131.265 85.7947,133.265 85.5,135.5C 89.1716,136.045 88.8383,136.378 84.5,136.5C 84.5,134.167 84.5,131.833 84.5,129.5 Z"/></g>
<g><path style="opacity:1" fill="#ecd1c1" d="M 95.5,129.5 C 96.5,129.5 97.5,129.5 98.5,129.5C 98.5,132.167 98.5,134.833 98.5,137.5C 97.5,137.5 96.5,137.5 95.5,137.5C 95.5,134.833 95.5,132.167 95.5,129.5 Z"/></g>
<g><path style="opacity:1" fill="#e2c0ac" d="M 118.5,129.5 C 120.288,129.215 121.955,129.548 123.5,130.5C 122.624,131.251 121.624,131.751 120.5,132C 124.5,133 124.5,134 120.5,135C 121.624,135.249 122.624,135.749 123.5,136.5C 121.955,137.452 120.288,137.785 118.5,137.5C 118.5,134.833 118.5,132.167 118.5,129.5 Z"/></g>
<g><path style="opacity:1" fill="#e3c2ae" d="M 58.5,129.5 C 63.0593,129.879 64.3926,132.213 62.5,136.5C 56.4025,137.214 55.0692,134.881 58.5,129.5 Z"/></g>
<g><path style="opacity:1" fill="#fcece0" d="M 58.5,131.5 C 59.5,131.5 60.5,131.5 61.5,131.5C 61.5,132.833 61.5,134.167 61.5,135.5C 60.5,135.5 59.5,135.5 58.5,135.5C 58.5,134.167 58.5,132.833 58.5,131.5 Z"/></g>
<g><path style="opacity:1" fill="#e3c2ae" d="M 104.5,129.5 C 106.1,130.252 107.6,131.252 109,132.5C 109.249,131.376 109.749,130.376 110.5,129.5C 111.833,131.833 111.833,134.167 110.5,136.5C 109.186,135.687 108.019,134.687 107,133.5C 106.781,134.938 106.281,136.271 105.5,137.5C 104.52,134.914 104.187,132.247 104.5,129.5 Z"/></g>
<g><path style="opacity:1" fill="#e1bfab" d="M 165.5,129.5 C 166.93,129.421 168.264,129.754 169.5,130.5C 171.708,137.133 169.875,138.8 164,135.5C 163.252,133.16 163.752,131.16 165.5,129.5 Z"/></g>
<g><path style="opacity:1" fill="#fcece0" d="M 165.5,131.5 C 167.346,131.222 168.68,131.889 169.5,133.5C 168.68,135.111 167.346,135.778 165.5,135.5C 165.5,134.167 165.5,132.833 165.5,131.5 Z"/></g>
<g><path style="opacity:1" fill="#e0bea9" d="M 150.5,129.5 C 152.048,129.821 152.715,130.821 152.5,132.5C 153.5,132.5 154.5,132.5 155.5,132.5C 156.833,132.833 156.833,133.167 155.5,133.5C 154.5,133.5 153.5,133.5 152.5,133.5C 152.719,134.675 152.386,135.675 151.5,136.5C 150.526,134.257 150.192,131.924 150.5,129.5 Z"/></g>
<g><path style="opacity:1" fill="#e1bfab" d="M 140.5,129.5 C 143.718,129.651 144.051,130.484 141.5,132C 143.037,133.11 143.703,134.61 143.5,136.5C 139.107,136.543 138.774,136.043 142.5,135C 139.767,133.772 139.1,131.939 140.5,129.5 Z"/></g>
</svg>
